<svg width="16" height="16" viewBox="0 0 16 16" fill="none" xmlns="http://www.w3.org/2000/svg">
<path d="M9.01063 5.92887C8.85753 5.83044 8.679 5.80374 8.51406 5.8405C8.35087 5.8768 8.20126 5.97524 8.1037 6.12706C8.0057 6.27974 7.97903 6.45737 8.01535 6.62144C8.0512 6.7855 8.14965 6.93597 8.30189 7.03356C8.93496 7.43913 9.31253 8.12776 9.31253 8.875C9.31253 9.4595 9.08503 10.0086 8.67203 10.4216L6.04703 13.0466C5.63359 13.46 5.08409 13.6875 4.50003 13.6875C3.29383 13.6875 2.31253 12.7062 2.31253 11.5C2.31253 10.9155 2.54003 10.3664 2.95303 9.95344L4.19815 8.70789C4.32939 8.57665 4.39329 8.40383 4.39065 8.23189C4.38759 8.06783 4.32372 7.90506 4.19815 7.77994C4.06996 7.65174 3.90196 7.58744 3.73442 7.58744C3.56642 7.58744 3.39842 7.6513 3.27068 7.77994L2.02554 9.0255C1.364 9.68613 1 10.5651 1 11.5C1 13.4298 2.5702 15 4.5 15C5.43494 15 6.31387 14.636 6.97494 13.9745L9.59994 11.3495C10.261 10.6893 10.625 9.80994 10.625 8.875C10.625 7.67844 10.0217 6.57726 9.01063 5.92887ZM11.5 1C10.5651 1 9.68613 1.364 9.02506 2.0255L6.40006 4.6505C5.739 5.31067 5.375 6.19006 5.375 7.12456C5.375 8.32113 5.97833 9.42274 6.98937 10.0711C7.1425 10.1691 7.321 10.1958 7.48594 10.1591C7.64911 10.1232 7.79874 10.0248 7.8963 9.87294C7.9943 9.71983 8.021 9.5422 7.98467 9.37813C7.9488 9.21406 7.85037 9.06356 7.69811 8.96644C7.06547 8.56044 6.68747 7.8718 6.68747 7.12456C6.68747 6.54006 6.91497 5.991 7.32797 5.578L9.953 2.953C10.3664 2.54 10.9159 2.3125 11.5 2.3125C12.7062 2.3125 13.6875 3.2938 13.6875 4.49956C13.6875 5.08406 13.46 5.63313 13.047 6.04613L11.8019 7.29126C11.6706 7.4225 11.6067 7.59533 11.6094 7.76726C11.6124 7.93133 11.6763 8.09409 11.8019 8.2192C11.9301 8.34739 12.0981 8.41126 12.2661 8.41126C12.4341 8.41126 12.6021 8.34739 12.7298 8.2192L13.9749 6.97363C14.636 6.31387 15 5.4345 15 4.49956C15 2.5702 13.4298 1 11.5 1Z" fill="black"/>
</svg>
