<svg width="15" height="12" viewBox="0 0 15 12" fill="none" xmlns="http://www.w3.org/2000/svg">
<path fill-rule="evenodd" clip-rule="evenodd" d="M7.59502 7.16675e-05C10.8994 0.0469417 13.6103 3.01786 14.9682 5.57412C14.9682 5.57412 14.4903 6.55192 14.0422 7.17786C13.8253 7.48072 13.5972 7.77572 13.3575 8.06099C13.1866 8.26412 13.01 8.46192 12.8269 8.65411C11.1903 10.3728 8.84002 11.655 6.35816 11.1572C3.60094 10.6041 1.35188 8.24166 0 5.70072C0 5.70072 0.480002 4.72192 0.930632 4.09692C1.1325 3.81666 1.34438 3.54379 1.56626 3.27912C1.73626 3.07632 1.9125 2.87852 2.09469 2.68632C3.54063 1.16257 5.39596 -0.0105583 7.59502 7.16675e-05ZM7.58342 1.25007C5.74282 1.2432 4.21222 2.271 3.00126 3.54692C2.83656 3.72039 2.67782 3.89912 2.52406 4.08226C2.32188 4.32352 2.12876 4.57259 1.94469 4.82786C1.76063 5.08286 1.57188 5.40472 1.42219 5.67819C2.61406 7.68099 4.40316 9.49001 6.60409 9.93161C8.65502 10.3432 10.5691 9.21261 11.9216 7.79226C12.0869 7.61879 12.2466 7.43972 12.401 7.25632C12.6197 6.99599 12.8278 6.72692 13.0256 6.45039C13.2088 6.19446 13.3972 5.87192 13.5466 5.59819C12.3097 3.52786 10.1934 1.2907 7.58342 1.25007Z" fill="#1f6feb"/>
<path fill-rule="evenodd" clip-rule="evenodd" d="M7.50533 3C8.88813 3 10.0109 4.12287 10.0109 5.50534C10.0109 6.88814 8.88813 8.01067 7.50533 8.01067C6.1228 8.01067 5 6.88814 5 5.50534C5 4.12287 6.1228 3 7.50533 3ZM7.50533 4.25287C8.19686 4.25287 8.75813 4.81407 8.75813 5.50534C8.75813 6.19694 8.19686 6.75814 7.50533 6.75814C6.81406 6.75814 6.2528 6.19694 6.2528 5.50534C6.2528 4.81407 6.81406 4.25287 7.50533 4.25287Z" fill="#1f6feb"/>
<path d="M13 10.1852L2.81482 0L2 0.814815L12.1852 11L13 10.1852Z" fill="#1f6feb"/>
</svg>
