<svg width="16" height="14" viewBox="0 0 16 14" fill="none" xmlns="http://www.w3.org/2000/svg">
<path fill-rule="evenodd" clip-rule="evenodd" d="M8.16033 1.35186C11.4647 1.39873 14.1756 4.36965 15.5335 6.92591C15.5335 6.92591 15.0556 7.90371 14.6075 8.52965C14.3906 8.83251 14.1625 9.12751 13.9228 9.41278C13.7519 9.61591 13.5753 9.81371 13.3922 10.0059C11.7556 11.7246 9.40533 13.0068 6.92347 12.509C4.16625 11.9559 1.91719 9.59345 0.565308 7.05251C0.565308 7.05251 1.04531 6.07371 1.49594 5.44871C1.69781 5.16845 1.90969 4.89558 2.13157 4.63091C2.30157 4.42811 2.47781 4.23031 2.66 4.03811C4.10594 2.51436 5.96127 1.34123 8.16033 1.35186ZM8.14873 2.60186C6.30813 2.59499 4.77753 3.62279 3.56657 4.89871C3.40187 5.07218 3.24313 5.25091 3.08937 5.43405C2.88719 5.67531 2.69407 5.92438 2.51 6.17965C2.32594 6.43465 2.13719 6.75651 1.9875 7.02998C3.17937 9.03278 4.96847 10.8418 7.1694 11.2834C9.22033 11.695 11.1344 10.5644 12.4869 9.14405C12.6522 8.97058 12.8119 8.79151 12.9663 8.60811C13.185 8.34778 13.3931 8.07871 13.5909 7.80218C13.7741 7.54625 13.9625 7.22371 14.1119 6.94998C12.875 4.87965 10.7587 2.64249 8.14873 2.60186Z" fill="black"/>
<path fill-rule="evenodd" clip-rule="evenodd" d="M8.0494 4.48371C9.4322 4.48371 10.555 5.60658 10.555 6.98905C10.555 8.37185 9.4322 9.49438 8.0494 9.49438C6.66687 9.49438 5.54407 8.37185 5.54407 6.98905C5.54407 5.60658 6.66687 4.48371 8.0494 4.48371ZM8.0494 5.73658C8.74093 5.73658 9.3022 6.29778 9.3022 6.98905C9.3022 7.68065 8.74093 8.24185 8.0494 8.24185C7.35813 8.24185 6.79687 7.68065 6.79687 6.98905C6.79687 6.29778 7.35813 5.73658 8.0494 5.73658Z" fill="black"/>
<path d="M14.4518 12.1184L2.66667 0.333313L1.72386 1.27612L13.509 13.0612L14.4518 12.1184Z" fill="black"/>
</svg>
