<svg width="16" height="12" viewBox="0 0 16 12" fill="none" xmlns="http://www.w3.org/2000/svg">
<path fill-rule="evenodd" clip-rule="evenodd" d="M8.16033 0.351878C11.4647 0.398752 14.1756 3.36966 15.5335 5.92593C15.5335 5.92593 15.0556 6.90373 14.6075 7.52966C14.3906 7.83253 14.1625 8.12753 13.9228 8.4128C13.7519 8.61593 13.5753 8.81373 13.3922 9.00593C11.7556 10.7247 9.40533 12.0069 6.92347 11.5091C4.16625 10.9559 1.91719 8.59347 0.565308 6.05253C0.565308 6.05253 1.04531 5.07373 1.49594 4.44873C1.69781 4.16847 1.90969 3.8956 2.13157 3.63093C2.30157 3.42813 2.47781 3.23033 2.66 3.03813C4.10594 1.51438 5.96127 0.341252 8.16033 0.351878ZM8.14873 1.60188C6.30813 1.595 4.77753 2.62281 3.56657 3.89873C3.40187 4.0722 3.24313 4.25093 3.08937 4.43406C2.88719 4.67533 2.69407 4.9244 2.51 5.17966C2.32594 5.43466 2.13719 5.75653 1.9875 6.03C3.17937 8.0328 4.96847 9.84186 7.1694 10.2835C9.22033 10.695 11.1344 9.5644 12.4869 8.14407C12.6522 7.9706 12.8119 7.79153 12.9663 7.60813C13.185 7.3478 13.3931 7.07873 13.5909 6.8022C13.7741 6.54627 13.9625 6.22373 14.1119 5.95C12.875 3.87966 10.7587 1.6425 8.14873 1.60188Z" fill="black"/>
<path fill-rule="evenodd" clip-rule="evenodd" d="M8.0494 3.48373C9.4322 3.48373 10.555 4.6066 10.555 5.98906C10.555 7.37186 9.4322 8.4944 8.0494 8.4944C6.66687 8.4944 5.54407 7.37186 5.54407 5.98906C5.54407 4.6066 6.66687 3.48373 8.0494 3.48373ZM8.0494 4.7366C8.74093 4.7366 9.3022 5.2978 9.3022 5.98906C9.3022 6.68066 8.74093 7.24187 8.0494 7.24187C7.35813 7.24187 6.79687 6.68066 6.79687 5.98906C6.79687 5.2978 7.35813 4.7366 8.0494 4.7366Z" fill="black"/>
</svg>
